<?xml version="1.0" encoding="UTF-8" standalone="no"?> <svg width="64" height="64" viewBox="0 0 64 64" fill="none" xmlns="http://www.w3.org/2000/svg">
<path d="M32 3C26.2644 3 20.6575 4.70082 15.8885 7.88738C11.1195 11.0739 7.40245 15.6031 5.20751 20.9022C3.01257 26.2012 2.43827 32.0322 3.55724 37.6576C4.67621 43.2831 7.43819 48.4504 11.4939 52.5061C15.5496 56.5618 20.7169 59.3238 26.3424 60.4428C31.9678 61.5617 37.7988 60.9874 43.0978 58.7925C48.3969 56.5976 52.9261 52.8806 56.1126 48.1115C59.2992 43.3425 61 37.7357 61 32C61 24.3087 57.9447 16.9325 52.5061 11.4939C47.0676 6.05535 39.6913 3 32 3V3ZM32 59C26.6599 59 21.4397 57.4165 16.9996 54.4497C12.5595 51.4829 9.09883 47.2661 7.05527 42.3325C5.0117 37.3988 4.47701 31.97 5.51881 26.7326C6.56061 21.4951 9.13211 16.6841 12.9081 12.9081C16.6841 9.1321 21.4951 6.5606 26.7326 5.5188C31.9701 4.477 37.3989 5.01169 42.3325 7.05525C47.2661 9.09882 51.4829 12.5595 54.4497 16.9996C57.4165 21.4397 59 26.6599 59 32C59 39.1608 56.1554 46.0284 51.0919 51.0919C46.0284 56.1554 39.1609 59 32 59Z" fill="url(#paint0_linear_170_360)"/>
<path d="M43.17 20.44L30.78 38.55L21.62 31.22C21.4113 31.0813 21.1582 31.026 20.9108 31.065C20.6633 31.104 20.4395 31.2344 20.2836 31.4306C20.1277 31.6267 20.0511 31.8742 20.0689 32.1241C20.0868 32.374 20.1978 32.608 20.38 32.78L30.38 40.78L30.54 40.85L30.63 40.9C30.7467 40.9544 30.8718 40.9882 31 41C31.1384 41.0001 31.275 40.9694 31.4 40.91V40.91C31.5181 40.8468 31.6232 40.762 31.71 40.66V40.66L44.71 21.66C44.8585 21.4399 44.9135 21.1698 44.8629 20.9091C44.8122 20.6484 44.6601 20.4185 44.44 20.27C44.2199 20.1215 43.9497 20.0665 43.6891 20.1171C43.4284 20.1678 43.1985 20.3199 43.05 20.54L43.17 20.44Z" fill="url(#paint1_linear_170_360)"/>
<defs>
<linearGradient id="paint0_linear_170_360" x1="3.00001" y1="32" x2="61" y2="32" gradientUnits="userSpaceOnUse">
<stop stop-color="#FCD702"/>
<stop offset="0.18" stop-color="#F8B802"/>
<stop offset="0.57" stop-color="#F17901"/>
<stop offset="0.85" stop-color="#EC5101"/>
<stop offset="1" stop-color="#EA4201"/>
</linearGradient>
<linearGradient id="paint1_linear_170_360" x1="516.363" y1="657.587" x2="1136.73" y2="657.587" gradientUnits="userSpaceOnUse">
<stop stop-color="#FCD702"/>
<stop offset="0.18" stop-color="#F8B802"/>
<stop offset="0.57" stop-color="#F17901"/>
<stop offset="0.85" stop-color="#EC5101"/>
<stop offset="1" stop-color="#EA4201"/>
</linearGradient>
</defs>
</svg>
