<svg xmlns="http://www.w3.org/2000/svg" xmlns:xlink="http://www.w3.org/1999/xlink" viewBox="0 0 64 64"><defs><style>.cls-1{fill:url(#linear-gradient);}.cls-2{fill:url(#linear-gradient-2);}.cls-3{fill:url(#linear-gradient-3);}.cls-4{fill:url(#linear-gradient-4);}.cls-5{fill:url(#linear-gradient-5);}.cls-6{fill:url(#linear-gradient-6);}.cls-7{fill:url(#linear-gradient-7);}.cls-8{fill:url(#linear-gradient-8);}</style><linearGradient id="linear-gradient" x1="3" y1="32" x2="61" y2="32" gradientUnits="userSpaceOnUse"><stop offset="0" stop-color="#9f2fff"/><stop offset="1" stop-color="#0bb1d3"/></linearGradient><linearGradient id="linear-gradient-2" x1="3.02" y1="44" x2="4.98" y2="44" xlink:href="#linear-gradient"/><linearGradient id="linear-gradient-3" x1="48" y1="21" x2="50" y2="21" xlink:href="#linear-gradient"/><linearGradient id="linear-gradient-4" x1="7" y1="16" x2="11" y2="16" xlink:href="#linear-gradient"/><linearGradient id="linear-gradient-5" x1="13" y1="16" x2="17" y2="16" xlink:href="#linear-gradient"/><linearGradient id="linear-gradient-6" x1="19" y1="16" x2="23" y2="16" xlink:href="#linear-gradient"/><linearGradient id="linear-gradient-7" x1="23.05" y1="37" x2="43" y2="37" xlink:href="#linear-gradient"/><linearGradient id="linear-gradient-8" x1="27.09" y1="37.42" x2="38.92" y2="37.42" xlink:href="#linear-gradient"/></defs><g id="WEB_PAGE" data-name="WEB PAGE"><path class="cls-1" d="M60,10H4a1,1,0,0,0-1,1V41a1,1,0,0,0,2,0V22H46a1,1,0,0,0,0-2H5V12H59v8H52a1,1,0,0,0,0,2h7V52H5V47a1,1,0,0,0-2,0v6a1,1,0,0,0,1,1H60a1,1,0,0,0,1-1V11A1,1,0,0,0,60,10Z"/><path class="cls-2" d="M4,45a1,1,0,1,0-.38-1.92A1,1,0,0,0,4,45Z"/><path class="cls-3" d="M48.44,21.83a1,1,0,0,0,1.27-1.54A1,1,0,1,0,48.44,21.83Z"/><path class="cls-4" d="M7,16a2,2,0,0,0,4,0A2,2,0,0,0,7,16Z"/><path class="cls-5" d="M13,16a2,2,0,0,0,4,0A2,2,0,0,0,13,16Z"/><path class="cls-6" d="M19,16a2,2,0,0,0,4,0A2,2,0,0,0,19,16Z"/><path class="cls-7" d="M43,37A10,10,0,0,0,33,27c-13.27.55-13.26,19.45,0,20A10,10,0,0,0,43,37ZM25,37a8,8,0,0,1,8-8c10.6.4,10.6,15.6,0,16A8,8,0,0,1,25,37Z"/><path class="cls-8" d="M38.62,35.25a1,1,0,0,0-1.42-1.41L32,39l-3.42-2a1,1,0,0,0-1,1.72c.25.09,4.41,2.8,4.6,2.59h0C32.44,41.81,38.36,35.37,38.62,35.25Z"/></g></svg>