<svg id="Layer_1" data-name="Layer 1" xmlns="http://www.w3.org/2000/svg" viewBox="0 0 173.29 141.75"><path d="M463.61,678.09c37.11,0,67.19,30.51,67.19,68.15s-30.08,68.14-67.19,68.14" transform="translate(-360.18 -675.36)" fill="none" stroke="#27aae1" stroke-miterlimit="10" stroke-width="5.34"/><rect x="409.6" y="625.96" width="5.46" height="104.27" rx="0.42" transform="translate(730.25 -409.6) rotate(90)" fill="#27aae1"/><rect x="360.19" y="675.36" width="5.46" height="43.29" transform="translate(365.67 718.65) rotate(180)" fill="#27aae1"/><rect x="428.3" y="764.94" width="5.46" height="15.18" transform="translate(501.89 869.7) rotate(180)" fill="#27aae1"/><rect x="360.19" y="764.97" width="5.46" height="52.14" rx="0.18" transform="translate(365.67 906.72) rotate(180)" fill="#27aae1"/><rect x="377.72" y="722.76" width="5.46" height="51.95" rx="0.06" transform="translate(-240.14 871.82) rotate(-135)" fill="#27aae1"/><rect x="410.75" y="722.55" width="5.46" height="51.95" rx="0.06" transform="translate(-768.36 -163.75) rotate(-45)" fill="#27aae1"/><rect x="409.6" y="762.24" width="5.46" height="104.27" rx="0.44" transform="translate(-762.23 551.35) rotate(-90)" fill="#27aae1"/><path d="M401.42,671.3" transform="translate(-360.18 -675.36)" fill="none" stroke="#1c75bc" stroke-miterlimit="10" stroke-width="5.34"/><rect x="39.48" y="96.64" width="8.12" height="8.12" fill="#27aae1"/><rect x="25.29" y="96.64" width="8.12" height="8.12" fill="#27aae1"/><rect x="25.29" y="111.62" width="8.12" height="8.12" fill="#27aae1"/><rect x="39.48" y="111.62" width="8.12" height="8.12" fill="#27aae1"/></svg>