<svg id="Layer_1" data-name="Layer 1" xmlns="http://www.w3.org/2000/svg" viewBox="0 0 758 364"><rect x="61.5" y="61.5" width="120" height="120" fill="#29abe2"/><path d="M710,318V437H591V318H710m1-1H590V438H711V317Z" transform="translate(-529 -256)"/><rect x="0.5" y="0.5" width="120" height="120" fill="#22b573"/><path d="M649,257V376H530V257H649m1-1H529V377H650V256Z" transform="translate(-529 -256)"/><rect x="576.5" y="182.5" width="120" height="120" fill="#ff0"/><path d="M1225,439V558H1106V439h119m1-1H1105V559h121V438Z" transform="translate(-529 -256)"/><rect x="637.5" y="243.5" width="120" height="120" fill="red"/><path d="M1286,500V619H1167V500h119m1-1H1166V620h121V499Z" transform="translate(-529 -256)"/></svg>