<?xml version="1.0" encoding="UTF-8" standalone="no"?> <svg xmlns="http://www.w3.org/2000/svg" viewBox="0 0 64 64"><defs><style>.cls-1{fill:#78b9eb;}.cls-2{fill:#006df0;}</style></defs><g id="Layer_48" data-name="Layer 48"><polygon class="cls-1" points="23.82 50.27 21.91 48.24 23.18 46.89 14.1 37.89 10.93 32.61 12.24 26.14 8.1 29.77 5.14 36.41 6.28 42.62 16.51 53.56 17.69 52.21 20.14 53.86 18.58 55.38 23.48 60 29.65 53.44 25.51 48.79 23.82 50.27"/><polygon class="cls-1" points="58.17 7.76 53.82 3.83 51.28 4.72 35.52 20.56 35.23 23.01 39.28 27.16 41.86 26.65 58.42 10.08 58.17 7.76"/><path class="cls-2" d="M58.55,6.88,55.6,3.93a3.17,3.17,0,0,0-4.49,0l-16,16a3.17,3.17,0,0,0-.47,3.87L18.13,40.31l-2.64-2.65c-3.55-3.55-4.35-8.54-1.77-11.12,0,0,0-.08.08-.12a1,1,0,0,0-1.07-1.67c-4.63,2.72-7.51,6.76-8.1,11.38a11.57,11.57,0,0,0,2.84,9.55l8.61,8.62a1,1,0,0,0,.71.29,1,1,0,0,0,.7-.29l.7-.7.63.63-.69.7a1,1,0,0,0,0,1.41l4.36,4.37a1,1,0,0,0,1.42,0l6.61-6.61a1,1,0,0,0,0-1.41l-4.37-4.37a1,1,0,0,0-1.42,0L24,49l-.63-.63.7-.7a1,1,0,0,0,.3-.71,1,1,0,0,0-.3-.7l-1.93-1.93L38.64,27.88a3.14,3.14,0,0,0,3.87-.47l16-16A3.16,3.16,0,0,0,58.55,6.88ZM28.39,53.4,23.2,58.59l-2.95-3,.7-.7a1,1,0,0,0,0-1.41l-2.05-2a1,1,0,0,0-1.41,0l-.7.7L8.88,44.27a9.61,9.61,0,0,1-2.27-7.89,12.57,12.57,0,0,1,3.73-7.28,12,12,0,0,0,3.73,10L22,47l-.7.7a1,1,0,0,0,0,1.42l2,2a1,1,0,0,0,.7.29,1,1,0,0,0,.71-.29l.7-.7ZM20.76,42.93l-1.21-1.21L35.94,25.33l1.21,1.21ZM57.14,10,41.09,26a1.19,1.19,0,0,1-1.66,0l-3-2.95a1.17,1.17,0,0,1,0-1.66l16.05-16a1.18,1.18,0,0,1,1.66,0l3,2.95A1.17,1.17,0,0,1,57.14,10Z"/><path class="cls-2" d="M17.58,59H5.78a1,1,0,0,0,0,2h11.8a1,1,0,0,0,0-2Z"/><path class="cls-2" d="M43.72,59h-15a1,1,0,0,0,0,2h15a1,1,0,0,0,0-2Z"/><path class="cls-2" d="M31,57a1,1,0,0,0,.59.2,1,1,0,0,0,.81-.41L36.68,51a1,1,0,0,0,.09-1,1,1,0,0,0-.89-.55H33.6L35.75,46a1,1,0,0,0-1.68-1.08l-3.14,4.92a1,1,0,0,0,0,1,1,1,0,0,0,.87.52H33.9l-3.13,4.26A1,1,0,0,0,31,57Z"/><path class="cls-2" d="M37.89,49.11a1,1,0,0,0,.59.2,1,1,0,0,0,.81-.41L42,45.28a1,1,0,0,0,.09-1,1,1,0,0,0-.89-.55h-.72l1-1.51a1,1,0,1,0-1.68-1.07l-2,3a1,1,0,0,0,.85,1.54h.56l-1.49,2A1,1,0,0,0,37.89,49.11Z"/></g></svg>