<?xml version="1.0" encoding="UTF-8" standalone="no"?> <svg width="64" height="64" viewBox="0 0 64 64" fill="none" xmlns="http://www.w3.org/2000/svg">
<path d="M15 52C15 50.6739 15.5268 49.4021 16.4645 48.4645C17.4021 47.5268 18.6739 47 20 47H23V55H6C5.73478 55 5.48043 54.8946 5.29289 54.7071C5.10536 54.5196 5 54.2652 5 54V48C5 47.7348 5.10536 47.4804 5.29289 47.2929C5.48043 47.1054 5.73478 47 6 47H10C11.3261 47 12.5979 47.5268 13.5355 48.4645C14.4732 49.4021 15 50.6739 15 52Z" fill="#BDDBFF"/>
<path d="M35 51V55H23V39H35V51ZM31 47V45C30.9961 44.4708 30.7841 43.9644 30.4099 43.5901C30.0357 43.2159 29.5292 43.0039 29 43C28.4701 43.0016 27.9623 43.2128 27.5875 43.5875C27.2128 43.9623 27.0016 44.4701 27 45V47C27 47.5304 27.2107 48.0391 27.5858 48.4142C27.9609 48.7893 28.4696 49 29 49C29.5304 49 30.0391 48.7893 30.4142 48.4142C30.7893 48.0391 31 47.5304 31 47Z" fill="#BDDBFF"/>
<path d="M54 35C54.2652 35 54.5196 35.1054 54.7071 35.2929C54.8946 35.4804 55 35.7348 55 36V38C55 38.2652 54.8946 38.5196 54.7071 38.7071C54.5196 38.8946 54.2652 39 54 39H6C5.73478 39 5.48043 38.8946 5.29289 38.7071C5.10536 38.5196 5 38.2652 5 38V36C5 35.7348 5.10536 35.4804 5.29289 35.2929C5.48043 35.1054 5.73478 35 6 35H54Z" fill="#BDDBFF"/>
<path d="M35 43H47.77C47.2388 44.2655 46.9766 45.6277 47 47H35V43Z" fill="#BDDBFF"/>
<path d="M50 53C49.6375 52.9952 49.2864 52.8723 49 52.65C48.4497 52.2201 48.0249 51.6502 47.77 51H35V55H52C52.2652 55 52.5196 54.8946 52.7071 54.7071C52.8946 54.5196 53 54.2652 53 54V47C53 50.31 51.66 53 50 53Z" fill="#BDDBFF"/>
<path d="M47.77 51H35V47H47C46.9766 48.3723 47.2388 49.7345 47.77 51Z" fill="#BDDBFF"/>
<path d="M53 39V47C53 43.69 51.66 41 50 41C49.11 41 48.31 41.77 47.77 43H35V39H53Z" fill="#BDDBFF"/>
<path d="M55 22C55 22.2652 54.8946 22.5196 54.7071 22.7071C54.5196 22.8946 54.2652 23 54 23H33V19H54C54.2652 19 54.5196 19.1054 54.7071 19.2929C54.8946 19.4804 55 19.7348 55 20V22Z" fill="#BDDBFF"/>
<path d="M53 31V35H33V23H53V27H42C41.7348 27 41.4804 27.1054 41.2929 27.2929C41.1054 27.4804 41 27.7348 41 28V30C41 30.2652 41.1054 30.5196 41.2929 30.7071C41.4804 30.8946 41.7348 31 42 31H53Z" fill="#BDDBFF"/>
<path d="M6 15C7.15265 14.9998 8.26999 15.3978 9.1629 16.1267C10.0558 16.8556 10.6695 17.8706 10.9 19H4C3.73478 19 3.48043 18.8946 3.29289 18.7071C3.10536 18.5196 3 18.2652 3 18V16C3 15.7348 3.10536 15.4804 3.29289 15.2929C3.48043 15.1054 3.73478 15 4 15H6Z" fill="#BDDBFF"/>
<path d="M33 19V35H4C3.73478 35 3.48043 34.8946 3.29289 34.7071C3.10536 34.5196 3 34.2652 3 34V32C3 31.7348 3.10536 31.4804 3.29289 31.2929C3.48043 31.1054 3.73478 31 4 31H28C28.2652 31 28.5196 30.8946 28.7071 30.7071C28.8946 30.5196 29 30.2652 29 30V20C29 19.7348 28.8946 19.4804 28.7071 19.2929C28.5196 19.1054 28.2652 19 28 19H11.1C11.3305 17.8706 11.9442 16.8556 12.8371 16.1267C13.73 15.3978 14.8473 14.9998 16 15H32C32.2652 15 32.5196 15.1054 32.7071 15.2929C32.8946 15.4804 33 15.7348 33 16V19Z" fill="#BDDBFF"/>
<path d="M29 42C28.2044 42 27.4413 42.3161 26.8787 42.8787C26.3161 43.4413 26 44.2044 26 45V47C26 47.7956 26.3161 48.5587 26.8787 49.1213C27.4413 49.6839 28.2044 50 29 50C29.7956 50 30.5587 49.6839 31.1213 49.1213C31.6839 48.5587 32 47.7956 32 47V45C32 44.2044 31.6839 43.4413 31.1213 42.8787C30.5587 42.3161 29.7956 42 29 42ZM30 47C30 47.2652 29.8946 47.5196 29.7071 47.7071C29.5196 47.8946 29.2652 48 29 48C28.7348 48 28.4804 47.8946 28.2929 47.7071C28.1054 47.5196 28 47.2652 28 47V45C28 44.7348 28.1054 44.4804 28.2929 44.2929C28.4804 44.1054 28.7348 44 29 44C29.2652 44 29.5196 44.1054 29.7071 44.2929C29.8946 44.4804 30 44.7348 30 45V47Z" fill="#3D9AE2"/>
<path d="M54 24C54.5299 23.9984 55.0377 23.7872 55.4125 23.4125C55.7872 23.0377 55.9984 22.5299 56 22V20C55.9984 19.4701 55.7872 18.9623 55.4125 18.5875C55.0377 18.2128 54.5299 18.0016 54 18H34V16C33.9984 15.4701 33.7872 14.9623 33.4125 14.5875C33.0377 14.2128 32.5299 14.0016 32 14H16C14.9391 14 13.9217 13.5786 13.1716 12.8284C12.4214 12.0783 12 11.0609 12 10C12 9.73478 11.8946 9.48043 11.7071 9.29289C11.5196 9.10536 11.2652 9 11 9C10.7348 9 10.4804 9.10536 10.2929 9.29289C10.1054 9.48043 10 9.73478 10 10C10 11.0609 9.57857 12.0783 8.82843 12.8284C8.07828 13.5786 7.06087 14 6 14H4C3.47005 14.0016 2.96227 14.2128 2.58753 14.5875C2.2128 14.9623 2.00158 15.4701 2 16V18C2.00158 18.5299 2.2128 19.0377 2.58753 19.4125C2.96227 19.7872 3.47005 19.9984 4 20H10C10 20.2652 10.1054 20.5196 10.2929 20.7071C10.4804 20.8946 10.7348 21 11 21C11.2652 21 11.5196 20.8946 11.7071 20.7071C11.8946 20.5196 12 20.2652 12 20V30H6V22H4V30C3.47005 30.0016 2.96227 30.2128 2.58753 30.5875C2.2128 30.9623 2.00158 31.4701 2 32V34C2.00158 34.5299 2.2128 35.0377 2.58753 35.4125C2.96227 35.7872 3.47005 35.9984 4 36V38C4.00158 38.5299 4.2128 39.0377 4.58753 39.4125C4.96227 39.7872 5.47005 39.9984 6 40V46C5.47005 46.0016 4.96227 46.2128 4.58753 46.5875C4.2128 46.9623 4.00158 47.4701 4 48V54C4.00158 54.5299 4.2128 55.0377 4.58753 55.4125C4.96227 55.7872 5.47005 55.9984 6 56H49V58H47V60H53V58H51V56H52C52.5299 55.9984 53.0377 55.7872 53.4125 55.4125C53.7872 55.0377 53.9984 54.5299 54 54V40C54.5299 39.9984 55.0377 39.7872 55.4125 39.4125C55.7872 39.0377 55.9984 38.5299 56 38V36C55.9984 35.4701 55.7872 34.9623 55.4125 34.5875C55.0377 34.2128 54.5299 34.0016 54 34V24ZM4 18V16H6C6.69847 16.0022 7.38405 16.1882 7.98788 16.5392C8.59171 16.8903 9.09252 17.3941 9.44 18H4ZM11 16.69C10.5575 16.0175 9.98246 15.4425 9.31 15C9.98246 14.5575 10.5575 13.9825 11 13.31C11.4425 13.9825 12.0175 14.5575 12.69 15C12.0175 15.4425 11.4425 16.0175 11 16.69ZM4 34V32H28C28.5299 31.9984 29.0377 31.7872 29.4125 31.4125C29.7872 31.0377 29.9984 30.5299 30 30V20C29.9984 19.4701 29.7872 18.9623 29.4125 18.5875C29.0377 18.2128 28.5299 18.0016 28 18H12.56C12.9075 17.3941 13.4083 16.8903 14.0121 16.5392C14.6159 16.1882 15.3015 16.0022 16 16H32V32H34V24H52V26H42C41.4701 26.0016 40.9623 26.2128 40.5875 26.5875C40.2128 26.9623 40.0016 27.4701 40 28V30C40.0016 30.5299 40.2128 31.0377 40.5875 31.4125C40.9623 31.7872 41.4701 31.9984 42 32H52V34H4ZM14 30V20H20V30H14ZM22 30V20H28V30H22ZM52 28V30H42V28H52ZM22 54H6V48H10C11.0609 48 12.0783 48.4214 12.8284 49.1716C13.5786 49.9217 14 50.9391 14 52C14 52.2652 14.1054 52.5196 14.2929 52.7071C14.4804 52.8946 14.7348 53 15 53C15.2652 53 15.5196 52.8946 15.7071 52.7071C15.8946 52.5196 16 52.2652 16 52C16 50.9391 16.4214 49.9217 17.1716 49.1716C17.9217 48.4214 18.9391 48 20 48H22V54ZM14 42C14 43.0609 13.5786 44.0783 12.8284 44.8284C12.0783 45.5786 11.0609 46 10 46H8V40H14V42ZM15 45.31C15.4425 45.9825 16.0175 46.5575 16.69 47C16.0175 47.4425 15.4425 48.0175 15 48.69C14.5575 48.0175 13.9825 47.4425 13.31 47C13.9825 46.5575 14.5575 45.9825 15 45.31ZM22 46H20C18.9391 46 17.9217 45.5786 17.1716 44.8284C16.4214 44.0783 16 43.0609 16 42V40H22V46ZM34 54H24V40H34V54ZM48 54H36V48H46.04C46.0907 48.6744 46.1977 49.3434 46.36 50H38V52H47.15C47.3816 52.4099 47.6676 52.7866 48 53.12V54ZM36 46V44H46.36C46.1977 44.6566 46.0907 45.3256 46.04 46H36ZM52 54H51V53.79C51.3732 53.6283 51.7124 53.3976 52 53.11V54ZM50 52C49.18 52 48 50.05 48 47C48 43.95 49.18 42 50 42C50.82 42 52 43.95 52 47C52 50.05 50.82 52 50 52ZM52 40.88C51.4758 40.3339 50.7568 40.0175 50 40C49.3888 40.0455 48.8013 40.2554 48.2996 40.6075C47.7979 40.9596 47.4007 41.4407 47.15 42H36V40H52V40.88ZM54 38H6V36H54V38ZM34 22V20H54V22H34Z" fill="#3D9AE2"/>
<path d="M59 53.79C60.76 53.05 62 50.38 62 47C62 43.01 60.28 40 58 40C55.72 40 54 43.01 54 47C54 50.38 55.24 53.05 57 53.79V58H55V60H61V58H59V53.79ZM58 52C57.18 52 56 50.05 56 47C56 43.95 57.18 42 58 42C58.82 42 60 43.95 60 47C60 50.05 58.82 52 58 52Z" fill="#3D9AE2"/>
<path d="M44 12C45.0609 12 46.0783 12.4214 46.8284 13.1716C47.5786 13.9217 48 14.9391 48 16C48 16.2652 48.1054 16.5196 48.2929 16.7071C48.4804 16.8946 48.7348 17 49 17C49.2652 17 49.5196 16.8946 49.7071 16.7071C49.8946 16.5196 50 16.2652 50 16C50 14.9391 50.4214 13.9217 51.1716 13.1716C51.9217 12.4214 52.9391 12 54 12C54.2652 12 54.5196 11.8946 54.7071 11.7071C54.8946 11.5196 55 11.2652 55 11C55 10.7348 54.8946 10.4804 54.7071 10.2929C54.5196 10.1054 54.2652 10 54 10C52.9391 10 51.9217 9.57857 51.1716 8.82843C50.4214 8.07828 50 7.06087 50 6C50 5.73478 49.8946 5.48043 49.7071 5.29289C49.5196 5.10536 49.2652 5 49 5C48.7348 5 48.4804 5.10536 48.2929 5.29289C48.1054 5.48043 48 5.73478 48 6C48 7.06087 47.5786 8.07828 46.8284 8.82843C46.0783 9.57857 45.0609 10 44 10C43.7348 10 43.4804 10.1054 43.2929 10.2929C43.1054 10.4804 43 10.7348 43 11C43 11.2652 43.1054 11.5196 43.2929 11.7071C43.4804 11.8946 43.7348 12 44 12ZM49 9.313C49.4448 9.98175 50.0182 10.5552 50.687 11C50.0182 11.4448 49.4448 12.0182 49 12.687C48.5552 12.0182 47.9818 11.4448 47.313 11C47.9818 10.5552 48.5552 9.98175 49 9.313V9.313Z" fill="#3D9AE2"/>
</svg>
